<svg width="161" height="94" viewBox="0 0 161 94" fill="none" xmlns="http://www.w3.org/2000/svg">
<g clip-path="url(#clip0_125_2)">
<path d="M16.3204 26.9992L16.2209 29.3872C16.1214 29.2877 15.2259 27.8947 13.3353 26.9992C12.5393 26.6012 11.5443 26.3027 10.2507 26.2032H9.75323C8.26069 26.2032 6.96716 26.5017 5.87263 26.9992C4.87761 27.3972 4.08159 27.9942 3.38507 28.6907C1.99203 30.0838 1.09651 31.7753 0.698501 33.6658C0.499496 34.5614 0.399994 35.4569 0.399994 36.3524C0.399994 37.845 0.598999 39.1385 0.997009 40.233C1.49452 41.9246 2.39004 43.3176 3.48457 44.3126C5.17611 45.9047 7.26567 46.6012 9.25571 46.6012C9.65372 46.6012 9.95223 46.6012 10.2507 46.5017C13.7333 46.1037 15.5244 44.0141 15.8229 43.7156V45.6061C15.8229 46.0042 15.8229 46.4022 15.7234 46.8997C15.4249 48.4917 14.3303 49.9843 10.6488 49.9843H10.2507C6.96716 49.9843 5.17611 48.1932 4.87761 47.9942L3.48457 49.5862L1.39502 51.9743C1.59402 52.1733 2.19104 52.8698 3.48457 53.5663C3.48457 53.5663 3.58407 53.5663 3.58407 53.6659C4.97711 54.4619 7.16616 55.1584 10.2507 55.2579H11.1463C13.4348 55.2579 15.4249 54.8599 17.0169 54.2629C17.5144 54.0639 17.9124 53.8649 18.3104 53.6659C19.007 53.2678 19.7035 52.7703 20.201 52.1733C21.6935 50.5813 22.191 48.8897 22.39 46.9992C22.4895 46.0042 22.4895 44.9096 22.4895 43.8151V26.9992H16.3204ZM11.6438 41.7256C11.1463 41.7256 10.7483 41.626 10.3502 41.5265C9.65373 41.3275 9.05671 40.83 8.5592 40.3325C7.76318 39.3375 7.26567 37.9445 7.26567 36.4519C7.26567 35.4569 7.46467 34.4619 7.86268 33.6658C8.36019 32.5713 9.15621 31.7753 10.3502 31.3773C10.7483 31.2778 11.1463 31.1783 11.6438 31.1783C13.4348 31.1783 14.7284 32.1733 15.4249 33.6658C15.8229 34.4619 16.0219 35.4569 16.0219 36.4519C16.0219 37.9445 15.6239 39.3375 14.7284 40.3325C14.0318 41.228 12.9373 41.7256 11.6438 41.7256ZM43.5841 33.6658C43.3851 31.6758 42.7881 29.9843 41.395 28.5912C40.6985 27.8947 39.9025 27.3972 39.007 26.9992C38.5094 26.8002 38.0119 26.6012 37.5144 26.5017C36.5194 26.3027 35.4249 26.2032 34.1313 26.2032C32.8378 26.2032 31.6438 26.4022 30.6487 26.6012C30.1512 26.7007 29.7532 26.8002 29.3552 26.9992C26.8677 27.8947 25.4746 29.2877 25.2756 29.4867L28.0617 33.3673C28.2607 33.1683 29.2557 32.3723 30.6487 31.7753C31.5443 31.3773 32.5393 31.0788 33.7333 31.0788C35.6239 31.0788 37.2159 31.6758 37.3154 33.5663V34.3624H33.7333C32.6388 34.3624 31.6438 34.4619 30.6487 34.5614C28.9572 34.8599 27.3652 35.5564 25.9721 36.9494C25.1761 37.7455 24.5791 38.84 24.3801 40.1335C24.3801 40.432 24.2806 40.7305 24.2806 41.029C24.2806 44.1136 25.9721 45.9047 28.2607 46.8002C28.9572 47.0987 29.7532 47.1982 30.6487 47.2977H31.4448C32.6388 47.2977 33.7333 47.0987 34.6289 46.8002C35.9224 46.3027 36.9174 45.6061 37.5144 45.1086L37.8129 44.8101L38.0119 46.8002H43.8826V36.9494C43.6836 35.7554 43.6836 34.6609 43.5841 33.6658ZM36.2209 42.1236C35.5244 42.7206 34.5293 43.1186 33.2358 43.1186C31.8428 43.1186 30.8478 42.4221 30.6487 41.228V40.3325C31.0468 38.84 32.7383 38.442 34.2308 38.442H37.3154V39.238C37.3154 39.636 37.3154 39.9345 37.2159 40.3325C37.1164 41.029 36.7184 41.7256 36.2209 42.1236ZM46.5691 20.3325V46.9992H53.1363V20.3325H46.5691Z" fill="#303135"/>
<path d="M64.5791 47.198C64.7781 47.0985 65.0766 47.0985 65.2756 46.999H64.5791V47.198Z" fill="#E96426"/>
<path d="M57.8129 28.0935C56.7184 28.7901 56.1214 29.3871 55.9224 29.5861L57.8129 32.1731V28.0935ZM74.2308 33.6657H71.3453V28.0935C70.8477 27.6955 70.2507 27.2975 69.5542 27.0985C68.2607 26.601 66.6686 26.3025 64.6786 26.3025H64.4796C62.589 26.3025 61.0965 26.601 59.9025 27.0985H64.4796V31.2776C66.2706 31.2776 67.7632 31.9741 67.8627 33.7652V34.5612H64.2806C61.8925 34.5612 59.604 34.8597 57.6139 36.2527C57.2159 36.5512 56.8179 36.8498 56.4199 37.2478C55.6239 38.0438 55.0268 39.1383 54.8278 40.4318C54.8278 40.7304 54.7283 41.0289 54.7283 41.3274C54.7283 43.8149 55.8229 45.5065 57.5144 46.5015L58.7084 47.0985C59.7035 47.4965 60.6985 47.596 61.793 47.596C62.6885 47.596 63.5841 47.4965 64.2806 47.2975V46.999H64.9771C66.4696 46.5015 67.5642 45.606 68.0617 45.009L68.2607 46.999H71.1462V40.3323H74.1313V36.9493C74.3303 35.7552 74.3303 34.6607 74.2308 33.6657ZM68.0617 39.2378C68.0617 39.6358 68.0617 39.9343 67.9622 40.3323C67.7632 41.0289 67.4647 41.7254 66.9671 42.1234C66.3701 42.6209 65.6736 42.9194 64.6786 43.1184H63.8826C62.39 43.1184 61.2955 42.3224 61.2955 40.9294C61.2955 40.7304 61.2955 40.5313 61.395 40.3323C61.6935 38.9393 63.186 38.5413 64.6786 38.4418H68.1612L68.0617 39.2378Z" fill="#303135"/>
<path d="M98.5094 33.6659H97.8129C97.9124 34.6609 98.1114 35.4569 98.5094 36.0539V33.6659ZM104.281 32.7703C104.281 32.1733 104.579 31.6758 105.375 31.3773C105.873 31.1783 106.569 31.0788 107.365 31.0788C109.554 31.0788 111.146 31.7753 112.141 32.3723C112.738 32.6708 113.136 32.9693 113.236 33.0688L116.221 29.4867C115.922 29.1882 114.828 27.8947 112.241 26.9992H112.141C110.848 26.6012 109.156 26.2032 106.967 26.2032C106.37 26.2032 105.873 26.2032 105.375 26.3027C104.281 26.4022 103.186 26.7007 102.291 26.9992C100.599 27.5962 99.3055 28.6907 98.6089 29.9843V33.5663H104.977C104.48 33.4668 104.281 33.1683 104.281 32.7703ZM116.519 40.3325C116.42 37.2479 114.43 35.8549 112.042 35.1584C109.554 34.4619 106.768 34.3624 105.276 33.8649V39.3375C107.067 39.636 108.659 39.835 109.455 40.3325H112.042V46.8997C114.629 45.8052 116.519 43.8151 116.519 40.631C116.619 40.5315 116.619 40.432 116.519 40.3325ZM105.375 42.8201C102.39 42.4221 100.499 40.9295 100.201 40.631L98.6089 42.9196L97.3154 44.8101C97.5144 44.9096 97.9124 45.3076 98.6089 45.7057C99.3055 46.1037 100.201 46.6012 101.395 46.9992C102.49 47.3972 103.883 47.5962 105.475 47.7952C105.972 47.7952 106.47 47.8947 107.067 47.8947C108.858 47.8947 110.549 47.5962 112.042 47.0987H105.574V42.8201H105.375ZM132.539 41.9246C131.644 42.4221 130.45 42.7206 128.957 42.7206C127.465 42.7206 126.47 42.3226 125.674 41.8251C125.176 41.427 124.778 40.9295 124.579 40.3325C124.38 39.835 124.281 39.3375 124.281 38.9395H138.509C138.509 37.0489 138.41 35.3574 138.111 33.6659C137.713 31.8748 136.917 30.2828 135.524 28.8897C134.629 27.9942 133.733 27.3972 132.838 26.9992C132.738 26.9992 132.639 26.8997 132.539 26.8997C131.146 26.3027 129.654 26.2032 128.559 26.2032C127.564 26.2032 126.569 26.3027 125.773 26.5017C125.176 26.6012 124.579 26.8002 123.982 26.9992C121.594 27.8947 119.902 29.5862 118.907 31.5763C118.509 32.2728 118.31 32.9693 118.111 33.6659C117.813 34.7604 117.614 35.9544 117.614 37.0489C117.614 38.1435 117.713 39.238 118.012 40.3325C118.211 41.1285 118.509 41.9246 118.907 42.6211C119.902 44.5116 121.594 46.1037 124.082 46.9992C124.579 47.1982 125.077 47.2977 125.674 47.3972C126.569 47.5962 127.564 47.6957 128.659 47.6957C130.052 47.6957 131.246 47.5962 132.44 47.1982C132.738 47.0987 132.937 46.9992 133.236 46.9992C135.027 46.4022 136.519 45.4071 137.912 43.8151L134.43 40.432C134.33 40.631 133.634 41.3275 132.539 41.9246ZM124.579 33.6659C124.778 33.0688 125.176 32.3723 125.773 31.7753C126.37 31.2778 127.166 30.8798 128.36 30.8798C130.947 30.8798 131.843 32.4718 132.141 33.6659C132.241 34.1634 132.34 34.5614 132.34 34.7604H124.48C124.281 34.5614 124.38 34.1634 124.579 33.6659ZM160.3 33.6659C160.3 32.4718 160.101 31.1783 159.703 30.1833C159.405 29.4867 159.007 28.8897 158.509 28.3922C157.912 27.7952 157.315 27.3972 156.718 27.0987C155.624 26.5017 154.43 26.3027 153.037 26.3027H152.838C151.445 26.3027 150.251 26.7007 149.355 27.0987C147.564 27.8947 146.569 29.0887 146.47 29.2877L146.37 27.0987H140.201V46.9992H146.868V37.1484C146.868 35.9544 146.868 34.6609 147.266 33.6659C147.465 33.3673 147.564 32.9693 147.863 32.7703C148.559 32.0738 149.554 31.7753 150.549 31.7753C151.445 31.7753 152.141 31.9743 152.639 32.3723C152.738 32.4718 152.838 32.5713 152.937 32.5713C153.236 32.8698 153.435 33.2678 153.534 33.6659C153.733 34.2629 153.733 34.9594 153.733 35.6559V46.9992H160.4V34.4619C160.3 34.2629 160.3 33.9644 160.3 33.6659ZM96.8179 46.9992L92.5393 40.3325L91.7433 39.1385L90.1512 36.5514L91.7433 34.6609L92.6388 33.6659H91.7433V26.9992H90.6487L85.2756 33.6659L84.9771 34.0639L83.7831 35.4569V26.9992H78.2109V20.3325H77.2159V27.0987H78.2109V33.7654H77.2159V40.3325H78.2109V46.9992H83.7831V38.1435L84.9771 39.9345L85.1761 40.3325H91.7433V46.9992H96.8179Z" fill="#303135"/>
<path d="M98.5094 30.0836C98.0119 30.9791 97.7134 31.9742 97.7134 33.0687V33.6657H98.4099V30.0836H98.5094ZM51.0468 7.09855V0.431885H44.2806V7.09855H51.0468ZM118.907 53.6657V60.3324H125.674V53.6657H118.907ZM98.5094 60.3324V66.999H105.375V60.3324H98.5094ZM84.9771 60.3324V66.999H91.7433V60.3324H84.9771ZM125.674 60.3324V66.999H132.539V60.3324H125.674ZM64.5791 13.6657V7.09855H57.8129V13.6657H64.5791ZM78.2109 46.999V53.6657H84.9771V46.999H78.2109ZM91.7433 46.999V53.6657H98.5094V46.999H91.7433ZM71.4448 20.3324V13.6657H64.5791V20.3324H71.4448ZM57.8129 20.3324V13.6657H51.0468V20.3324H57.8129ZM132.539 86.8995V93.5662H139.305V86.8995H132.539ZM125.674 73.5662V80.2329H132.539V73.5662H125.674ZM118.907 80.2329V86.8995H125.674V80.2329H118.907ZM71.4448 40.3324V46.999H74.3303V40.3324H71.4448ZM57.8129 32.0737L58.8079 33.3672C59.206 33.0687 61.4945 31.1782 64.4796 31.1782H64.6786V26.999H60.002C59.1065 27.2976 58.4099 27.6956 57.8129 28.0936V32.0737ZM71.4448 28.0936V33.7652H74.3303C74.1313 31.7752 73.5343 30.0836 72.1413 28.6906C71.8428 28.3921 71.6438 28.1931 71.4448 28.0936ZM91.7433 26.999V33.6657H92.6388L98.4099 26.999H91.7433ZM78.2109 26.999H83.7831V20.3324H78.2109V26.999ZM91.7433 40.3324H85.1761L89.3552 46.999H91.7433V40.3324ZM98.5094 33.6657V36.0538C99.803 38.3423 102.788 38.9393 105.276 39.3374V33.8647C105.077 33.7652 104.977 33.7652 104.878 33.6657H98.5094ZM112.141 40.3324H109.554C109.853 40.5314 110.052 40.8299 110.052 41.2279C110.052 41.5264 109.952 42.9194 106.868 42.9194C106.37 42.9194 105.773 42.9194 105.276 42.8199V46.999H111.743C111.843 46.999 111.942 46.8995 112.042 46.8995L112.141 40.3324ZM77.2159 40.3324V46.999H78.2109V40.3324H77.2159ZM78.2109 27.0986H77.2159V33.7652H78.2109V27.0986Z" fill="#E96426"/>
</g>
<defs>
<clipPath id="clip0_125_2">
<rect width="160" height="93.1343" fill="white" transform="translate(0.399994 0.23291)"/>
</clipPath>
</defs>
</svg>
